<svg xmlns="http://www.w3.org/2000/svg" xmlns:xlink="http://www.w3.org/1999/xlink" viewBox="0 0 82.92 97.88"><defs><style>.cls-1{isolation:isolate;}.cls-2{fill:#d8a798;}.cls-3{fill:#3d0c04;}.cls-4{fill:#028487;}.cls-5{fill:#601f1a;}.cls-6{fill:#cc9483;}.cls-7{fill:#808cb2;}.cls-8{fill:#102b8c;}.cls-9{fill:#97a5c1;}.cls-10{fill:#00a5a5;}.cls-11{fill:#2a4fc6;}.cls-12{fill:#66124c;}.cls-13{fill:#aa0031;}.cls-14{fill:#d1203d;}.cls-15{fill:#66bcf7;}.cls-16{fill:#8acdff;}.cls-17{mix-blend-mode:multiply;fill:url(#linear-gradient);}.cls-18{fill:#893170;}.cls-19{fill:#bfbfcb;}.cls-20{fill:#ced4dd;}</style><linearGradient id="linear-gradient" x1="-14.08" y1="-5.64" x2="-12.99" y2="-13.88" gradientTransform="translate(36.65 44.01) rotate(14.19)" gradientUnits="userSpaceOnUse"><stop offset="0" stop-color="#fff"/><stop offset="0.01" stop-color="#fdfcfc"/><stop offset="0.1" stop-color="#e5e2df"/><stop offset="0.19" stop-color="#d4cfca"/><stop offset="0.28" stop-color="#c9c4bd"/><stop offset="0.37" stop-color="#c6c0b9"/></linearGradient></defs><title>Varlık 7</title><g class="cls-1"><g id="katman_2" data-name="katman 2"><g id="Layer_2" data-name="Layer 2"><path class="cls-2" d="M56.24,17.85c-1.77,3-5.24,9.67-6.69,12.46-.88.71-4.88,6-6.17,7.21l1.72,2c1.1-1,5.85-4.52,7.33-7,.92-.74,2.85-3.76,5.22-8.8C58.21,22.51,56.24,17.85,56.24,17.85Z"/><path class="cls-3" d="M49.37,7c.37,5.42,2.33,12.39,1.6,14.14,1.62.89,8.07.87,8.56-.27s-.89-9.16-3.08-11.46S49.37,7,49.37,7Z"/><path class="cls-4" d="M58.37,14.75c-1.31,1.21-3.12,2-3.93,3.48s-3.26,7.28-3.26,7.28l5.87,2.73s1.4-9.26,1.07-9.75S58.37,14.75,58.37,14.75Z"/><path class="cls-2" d="M64.36,12.35c-1.15-.27-3.64-1.94-4.94-5.87l-4.55,5.39c1.63.78,3.12,2.64,3.1,3.5a14.61,14.61,0,0,1-.52,3.74C58.46,26.25,64.53,11.94,64.36,12.35Z"/><path class="cls-2" d="M59.64,6.84c.72,3.44-1.49,6.78-3.08,7.34-1,.35-3.12-.33-5.28-4.3-1.78-3.27-2.61-7.3,1.78-8.81C57.19-.34,58.88,3.25,59.64,6.84Z"/><path class="cls-3" d="M52,5c-2.23.2-2.1,2.73-1.87,4.29-1.19-.38-1.3-5.45.82-7.3s3.75-1.75,4.17-.75C55.62,2.49,52,5,52,5Z"/><path class="cls-5" d="M53.53.49c.58-.53,4.2-1,6.11.66C61.18,2.23,63,4.21,65.11,8c3.38,6,5.36,7.21,6,7.26s-2.54,4.27-2.92,4.11-5.23-8.42-5.38-8.7c-.05-.11-.87-1.55-1.88-3.34A5,5,0,0,1,60.41,10L57.63,5.87,51.56,4Z"/><path class="cls-6" d="M67.19,84.19c-.55,4.79-.89,6-3.35,7.17-1.14.54.61,2.22.61,2.22A26.69,26.69,0,0,0,69.74,92c2.08-1.13.2-1.93.46-6.7C70.32,83.12,67.19,84.19,67.19,84.19Z"/><path class="cls-7" d="M64.14,91.1c-.39.55-.3,1.11.43,1.26,1,.23,4-.64,6.26-2.59,1,4.09-.5,3.81-2.73,3.55-.48-.06-2.74,2.6-7,.9-.77-.31-.45-1.86,1.41-2.33C63.82,91.55,64.14,91.1,64.14,91.1Z"/><path class="cls-8" d="M65.21,33.74c.45,1.7,3.94,6.25,3.61,10.16-.19,2.25,1.54,5.14,1.31,6-.7,2.66-1.26,12.28-.42,18.42,0,0,4.13,5.37,1.19,18.77a33.55,33.55,0,0,1-5,.9s-1.63-13.5-2.53-16.82c-1.74-6.42-3.22-21.26-3.69-23.28-1.41-6-.44-7.81-1-9.42Z"/><path class="cls-6" d="M77.42,85.87c.16,4.63-.54,6.77-2.84,9.08-.86.86,1.92.66,1.92.66A33.24,33.24,0,0,0,81.6,93c1.24-1,.61-1.38-.1-3.05a43.35,43.35,0,0,1-.73-4.52C80.37,83.42,77.42,85.87,77.42,85.87Z"/><path class="cls-9" d="M75.85,93.32c-.29.58-.21,1.36.49,1.46,1.9.29,4-1.73,5.63-3.78,2.48,3.08-.6,4.14-1.33,3.93-.33-.1-1.06,3-5.58,2.34C73.16,97,72.9,95.74,74,94.9S75.85,93.32,75.85,93.32Z"/><path class="cls-8" d="M69.93,34.15c.45,1.7,5,5.62,5.16,8.12a16,16,0,0,1-.21,4.7c-.71,2.66,2.36,14.81,3.21,21a50.91,50.91,0,0,1,4.08,20.24,43.55,43.55,0,0,1-5.76,1s-3.47-16.28-5.76-18.85C68.55,68,64,50.21,63.54,48.19c-1.41-6-1.58-3.91-3.19-9.12Z"/><path class="cls-4" d="M61.7,17.06c-2.94,2.93-4.27-.42-4.27-.42-.76,2.13-1.67,7.35-1.91,8.44a4.34,4.34,0,0,0,.74,3.56,5.42,5.42,0,0,1,.68,2.73c1,8,2.11,20.62,2.11,20.62s11.08-.54,16.73-4.42c.65-.44-8.47-17-7.45-27.16.39-4-.57-2.85-4.45-6.89C63.75,15.39,62.87,15.91,61.7,17.06Z"/><path class="cls-10" d="M69.76,17.33a114.3,114.3,0,0,0,1.54,12C73.15,37,77.44,46,77,46.36c-1.32,1.29-2.08,2.16-4.19,2.69,0,0-4.23-14.16-5.46-18.57-2.17-7.84-.68-11.43-.83-13.28-.12-1.37-2-1.89-3.15-2.54.87-.84.72-1,.77-1.95C68,15.22,69.53,15.11,69.76,17.33Z"/><path class="cls-5" d="M58.62,9.05c.54,1.45,3.14,9.46,2,10.52,1.15-.72,1.54-5.92.89-8,1.08,4.09.66,7.79-.32,8.42C62.88,18.57,64,15,64,15l1.16-1.9S58.37-.72,51.65,3.77L51.1,5.24C53.44,4.43,57.57,6.2,58.62,9.05Z"/><path class="cls-2" d="M56.64,6.77c-.08-.38.81-.91,1.29-.42.7.69,1.58,2.56.41,2.92C57.58,9.51,56.64,6.77,56.64,6.77Z"/><path class="cls-4" d="M66.6,38.68a21.15,21.15,0,0,0,5.22-1.46s2.53,4.05,1.81,4.79-6.46,2.72-6.56,1.3S66.6,38.68,66.6,38.68Z"/><path class="cls-10" d="M66.48,38.89a22.08,22.08,0,0,0,5.11-1.33s2.46,3.72,1.76,4.4S67,44.45,66.94,43.15,66.48,38.89,66.48,38.89Z"/><path class="cls-11" d="M65.48,51.86a141.56,141.56,0,0,0,4.23,16.46c.72,1.74,1.39,1.74,1.92,3.61s5,16.79,4.78,17.23,2.31.07,2.85-.47-3.61-15-4.55-17-2.54-3.08-3.48-5.48S65.48,51.86,65.48,51.86Z"/><path class="cls-2" d="M61.74,31.06c-3.7,3.25-4.45,3.74-4.45,3.74a13.44,13.44,0,0,0-1.48.29c-.44.11-1,.53-1.77.7,0,0-.38.34.25.27,1-.11,1.08,0,1.08,0l-1,.59c-.19.1-.36.25-.83.51a2.32,2.32,0,0,1-.87.25s-.42.15-.11.21a2.66,2.66,0,0,0,1.31-.16,1,1,0,0,1-.6.19c-.27,0-.7,0-.75.1s.17.22.82.25a2.29,2.29,0,0,0,.86-.11,2.44,2.44,0,0,1-.71.14c-.34,0-.57,0-.5.14s.36.19.8.23a3.68,3.68,0,0,0,1.31-.26s-2,.28-1.4.5A7.57,7.57,0,0,0,56,38.47a31.44,31.44,0,0,0,3-1.72c.94-.56,7.61-5.27,7.61-5.27Z"/><path class="cls-6" d="M55.77,37.39s.09,0-.07-.3l0,0c.11,0,.13-.15.13-.15s-.69-.54-.92-.67a10.24,10.24,0,0,0-1.16-.16c-1.31-.26-3,.53-3.78.59-.45,0-.91.09-1.35.09A51.63,51.63,0,0,0,39,36.23c-2.19.33-8.24-1.26-11.4-1.49,0,0-1.48,4.52-.38,5.86s8.78.12,10.38.54c.58.16.63,0,1.8-.15A101.14,101.14,0,0,0,49.5,39l.43,0a2.33,2.33,0,0,0,1.79.2,6.08,6.08,0,0,1,1.69-.21c.28,0,.49-.45-.37-.49a1.1,1.1,0,0,1-.57-.21h0A8,8,0,0,1,54,38c.76,0,1.32.2,1.35-.13,0-.11-.66-.2-1-.41l-.43-.08a3,3,0,0,1,.66.09c.26.1,1.06.45,1.2.24s-.49-.35-1-.62a2.45,2.45,0,0,0-.87-.23,3.36,3.36,0,0,1,.93.17C55,37.13,55.7,37.53,55.77,37.39Z"/><path class="cls-12" d="M28.37,34c.67,0,1.45.06,2.31.2S36.38,36,36.38,36s-.73,6.89-1.45,6.76c-.26-.05-2.78.48-3.57,0S28.37,34,28.37,34Z"/><path class="cls-13" d="M38.43,78.61c0,9.58-5.37,15.68-18.89,16.21C6.27,95.34,0,88.19,0,78.61S8.61,61.26,19.21,61.26,38.43,69,38.43,78.61Z"/><path class="cls-14" d="M2.47,78.55A15.45,15.45,0,0,0,9.06,91,15.07,15.07,0,0,1,5.11,80.94c0-8.86,7.2-14,17-14,4.23,0,10,1.49,13.05,3.71-.68-3.56-9.48-7.66-15.06-7.74C9.31,62.75,2.47,69.69,2.47,78.55Z"/><path class="cls-2" d="M41.36,40.68a6.56,6.56,0,0,1,.85-1.45c.21-.16.38-.14.33.2s-.18,1.49-.57,1.5A.8.8,0,0,1,41.36,40.68Z"/><path class="cls-2" d="M42.17,40.72c0,.27.64.45.77.22s.42-1.77.12-2-.4-.2-.44.37A5.34,5.34,0,0,1,42.17,40.72Z"/><path class="cls-2" d="M42.94,40.82c.09.23.64.12.69,0s.26-1.28.07-1.52-.34-.21-.39-.06S42.94,40.82,42.94,40.82Z"/><path class="cls-2" d="M43.6,40.76a.58.58,0,0,0,.68-.16,1.35,1.35,0,0,0,0-1.13c-.2-.2-.26-.1-.35.07A10.42,10.42,0,0,0,43.6,40.76Z"/><path class="cls-6" d="M53,91.21c-.24-.15-4.46-3.11-4.74-5.17-.75-5.69.66-14.23,2.05-17.4.79-1.81-6.66-6.87-6.92-.79-2.29,3.55.21,19.3.21,19.3-.49,1.77-1.07,3.69-.17,4.41a2.45,2.45,0,0,0,2.73.48c.73-.45,4.73,1,6.49.79S53.87,91.79,53,91.21Z"/><path class="cls-7" d="M43,88.1c-.59,1.09-.9,3.18-.51,3.79s2.63.81,3.25.65A3,3,0,0,1,48,92.43c1,.37,5.24,1.16,6.08.22s-1.18-2-2-2.43-1.68.63-2.68.65S43,88.1,43,88.1Z"/><path class="cls-15" d="M30.2,57.23l3.61,3S49,62.72,50.12,65.82c.73,2-.21,5.59-.5,6.37s-.95,11.71-.95,11.71L42.43,84a41.07,41.07,0,0,1-1-12.87c0-.46-8.59-1.36-9.37-1.69-5.41-2.3-10.83-6.12-10.92-6.64S30.2,57.23,30.2,57.23Z"/><path class="cls-2" d="M38.06,95.79c-.25-.16-3.93-3.2-4.23-5.37-.81-6,.87-14.73,2.33-18.08.83-1.91-5.31-8-5.57-1.58-2.4,3.74-1.53,19.91-1.53,19.91-.52,1.86-1.45,4.06-.51,4.82a2.58,2.58,0,0,0,2.87.5c.77-.48,2.83,1.58,4.69,1.38S39,96.39,38.06,95.79Z"/><path class="cls-9" d="M28.47,92c-.61,1.12-.91,3.27-.51,3.89s2.26.87,2.89.7.82.29,1.86.66,5.38,1.18,6.23.21-.67-2.16-1.47-2.62-2.27.79-3.29.81S28.47,92,28.47,92Z"/><path class="cls-15" d="M12.9,54.63C10.81,57.31,9,64.94,11.47,67.12c5.08,4.42,16.91,4.68,16.91,4.68s-1.74,15.89-.91,16c2.8.37,6.76,1.19,7.41-1.17.6-2.14,3.53-16.66,2.35-18.86-1.37-2.54-6.78-4.85-9-6.25-.76-.48-1-2.67-1.67-2.89C24.71,58,12.9,54.63,12.9,54.63Z"/><path class="cls-16" d="M29.88,61.59c1.56.91,7.3,3.59,8.13,5.66.52,1.3.19,4.68-.78,6.37-.74,1.28-1.56,13-2.35,13.66a3.14,3.14,0,0,1-2.14.45s1.5-12.06,2.4-14.11c1.07-2.43,1.11-5.72-.58-6.89s-9.62-4.49-10.93-4A30.69,30.69,0,0,1,29.88,61.59Z"/><path class="cls-6" d="M28.82,30.91c-.68,1.29-.47,1.76-.1,3.36a6.31,6.31,0,0,0,.85,1.89c1,1.18-4,2.41-4.53,2.27-.73-.21-5.18-5-5.18-5s.71.82,2.94-6.38C23.14,25.93,28.82,30.91,28.82,30.91Z"/><path class="cls-17" d="M24.93,29.47h0l3.76,2.1c-.06.2-.34,1.42.13,5.38-.87.71-5,2.57-6.17,2.23-1-.29-2.41-5-2.83-5.81,1.88-1.59,2.63-5.26,2.69-5.49Z"/><path class="cls-12" d="M32.26,47.69a8.66,8.66,0,0,0-.1-4.06c-.67-2.65-1.43-8.74-1.88-9.27s-1.87-1.13-1.7-.48c.52,2-.23,2.83-.23,2.83h0a1.44,1.44,0,0,1-1.44.46c-1.37-.35-1.8,0-6.58-5.35a61.49,61.49,0,0,0-5.47,4.5c-.33.31-2,4.55-2.08,10.2,0,1,.1,5.1-3.65,14.66-.6,1.53,10.18,1.65,10.18,1.65s8.54-.1,10.94-1.81v0l2.15-1.61S30.9,53,31.15,51.75C31.56,49.67,32.1,48.94,32.26,47.69Z"/><path class="cls-18" d="M31.5,50c.41-2.07.83-1.82,1-3.06s.55-1.46,0-3.4c-.67-2.65-2.24-8.82-2.69-9.35s-1.49-1-1.32-.39c.52,2-.23,2.83-.23,2.83h0a1.46,1.46,0,0,1-1.45.46c-1.26-.32-1.34.31-5.08-3.76l-.22,0c-1.23,1-3.79,2.56-3.41,2.84a65.08,65.08,0,0,1,4.7,7.69c.28,1,1.38,3.88.82,5.29S21.59,52,22.06,53.57s1.32,7.32.76,8.36,7-.57,9.53-2.37C32.31,54.57,31.26,51.27,31.5,50Z"/><path class="cls-2" d="M45.89,47.47a6.72,6.72,0,0,0-2.71-1.66c-.72,0-2.88-.06-3.89-.07-.8,0-8.53-3.11-11-3.49s-8.13-5-11.45-6.31c0,0-3.41,4.76-2.69,6.57s9.16,4,10.73,5c.57.36.68.23,2,.45a63.14,63.14,0,0,0,11.16.26c.43.13,1.06.37,1.32.41,1.71.29,2.44-.22,2.88-.08,1.17.39,2.06.73,2.21.43s-.79-.67-1.11-.85c.36.2,1.47.78,1.71.44s-1.89-1.1-1.89-1.1a3.51,3.51,0,0,1,1.27.42c1.21.76,1.18.15,1.18.15l-.79-.54-1.06-.69a6,6,0,0,1,1.07.52C45.63,47.83,46.34,48.1,45.89,47.47Z"/><path class="cls-12" d="M18.26,35.64a7.14,7.14,0,0,1,2.39,1.13,49.21,49.21,0,0,1,4.65,4c.38.5-4.34,7.05-5,7.17s-6-3.4-6.54-5.79a7,7,0,0,1,1.32-5.6C16,35.45,18.26,35.64,18.26,35.64Z"/><path class="cls-12" d="M20.79,33.37c.47.66,5.14,5,7.08,4.3s1.7-3.07,1.18-4.34-.38.42-.38.42.38,2.64-1.08,3c-1.2.27-2.41,0-4-1.65s-2.31-2.22-2.31-2.22Z"/><path class="cls-19" d="M32,28.37c-.2,1.53.78,3.34,1.42,3.29-.94,1.23-3.43,2.4-5.16,1.07-.28-.21-1-10.55-1.22-10.8s2-2,2.59-1.73a3.06,3.06,0,0,1,1.68,1.95C31.56,23.15,32,28.37,32,28.37Z"/><path class="cls-2" d="M28.9,33.69c2.11-.59,2.15-4,2.11-6.21s.18-3.74-1.13-5.72c-.77-1.14-4.59-1.22-5.52-1-4.19.92-3.07,3.43-2.51,6.16-1.07-.35-.79-.12-.48.94.24.82.39,2.45,1,2.6A5.39,5.39,0,0,0,24.49,33,5,5,0,0,0,28.9,33.69Z"/><path class="cls-19" d="M29.38,19.47c-.82-.81-2-1.07-3.74-.79-4.13-.53-5.52,1.41-5.72,2.14a8.1,8.1,0,0,0-2.14,2.95,7.14,7.14,0,0,0-.11,2.74h0c.05,1-.4,3.65.1,4.21.13.15.36,1.1-.86,1.32-.26.05,5,2.71,5.88,1.49a3.67,3.67,0,0,0,.52-1.28h0v-.1a8.78,8.78,0,0,0,0-2.71V28.28s.94-3.59,1.16-4.22c.16-.46.65,2.33.46.7,1.31-1.35,3.16-.71,4.86-2.5A1.88,1.88,0,0,0,29.38,19.47Z"/><path class="cls-20" d="M29.91,20.41c0,1-.62,2.1-2.53,2.25s-3.89,2-3.62,2.15a3.6,3.6,0,0,1,1.43-2.15,2.51,2.51,0,0,0-2.16,2c-.37-.9,1-3.63,2.59-3.92s3.58-.57,3.94-.7S29.91,20.41,29.91,20.41Z"/><path class="cls-20" d="M23.62,22.11a7.56,7.56,0,0,0-1.23,6.63c1.06,4.36-1.65,3.92-1.65,3.92s1.7-.2.93-2.67c-.54-1.73-1.58-3.86-.26-5.75S23.62,22.11,23.62,22.11Z"/><path class="cls-20" d="M28.36,21.93a5.68,5.68,0,0,0-4.45,4.6c-.29,2.79,1.28,6.47-1.7,7,1.37-1.06,1.18-3.15.6-5.28s.71-4.07,1.86-5.16S28.36,21.93,28.36,21.93Z"/><path class="cls-2" d="M70.36,19.47a36.28,36.28,0,0,1-2.27,12.06c-.41.61-6.68,4-9.09,4.87-.26.1-1-1.91-1-1.91s5.3-4.9,5.77-5.17c1-2.2,1.66-8.64,2.39-9.65S70.36,19.47,70.36,19.47Z"/><path class="cls-4" d="M67.94,15.83c1.31.15,1.52,2.49,1.8,3.66.65,2.71-.42,7-.42,7l-5.44-.2s.24-6.88.86-8.24C66.06,15.13,67.94,15.83,67.94,15.83Z"/><path class="cls-10" d="M70.09,17.23c.94,1.65,1.34,9.47,1.34,9.47l-3.24-.34c.5-1.55,1.25-6.92-1.06-10.63A2.4,2.4,0,0,1,70.09,17.23Z"/></g></g></g></svg>